<svg width="138" height="121" viewBox="0 0 138 121" fill="none" xmlns="http://www.w3.org/2000/svg">
<path d="M34.2631 41.2827L36.5217 28.2861L32.7895 22.8163L17.588 27.1549L12.5827 44.1353L14.8394 88.5213L19.0663 102.092L25.3261 104.396L28.5565 95.7178L29.0898 87.331L42.2276 92.5959L36.3325 108.449L31.5164 116.76L20.5733 120.673L10.226 120.082L2.342 114.606L1.84213 92.7518L0 88.4265L3.85626 64.099L2.90126 48.7286L5.0467 36.0012L18.2599 15.5468L35.77 8.47493L51.5658 26.3048L49.595 35.6637L41.4345 42.5293L34.2631 41.2827Z" fill="#E30712"/>
<path d="M42.7623 119.679L51.3968 61.4646L68.8816 8.35893L73.5951 0L84.6715 3.76372L77.9172 22.7632L67.44 54.3503L75.5406 60.4507L90.9364 72.1774L98.3165 82.1722L99.9001 115.034L82.4481 116.838L78.9335 89.1691L75.6532 80.1591L65.5352 76.4345L62.4193 79.7181L61.4669 101.202L55.3804 120.481L42.7623 119.679Z" fill="#E30712"/>
<path d="M137.018 89.1247L126.88 65.0406L126.538 50.7682L119.544 50.7139L111.413 64.1971L103.995 84.1449L104.296 108.485L105.269 115.821L110.317 120.586L119.109 111.611L125.41 90.4768L130.617 97.4333L137.018 89.1247ZM110.478 108.625L111.929 83.7669L115.099 75.2416L118.318 77.5896L118.541 79.61L117.847 91.9541L114.945 102.904L110.478 108.625Z" fill="#E30712"/>
</svg>
