<svg width="143" height="157" viewBox="0 0 143 157" fill="none" xmlns="http://www.w3.org/2000/svg">
<path d="M29.2479 74.5824L26.8346 61.6157L21.4287 57.7738L8.68458 67.0908L9.91229 84.7443L27.5078 125.591L36.2048 136.859H42.8791V127.603L40.4517 119.553L54.61 119.956V136.859L52.9917 146.316L44.092 153.761L34.1801 156.786L24.8765 154.371L16.7845 134.042L13.5487 130.621L8.68328 106.474L2.42758 92.3877L0.000156403 79.7108L5.25888 55.9662L19.2146 43.2892L40.2498 54.5578L41.6654 64.0154L36.4067 73.2722L29.2479 74.5824Z" fill="#E30712"/>
<path d="M64.5582 145.175L52.3534 87.5969L50.2306 31.7547L52.0301 0.293745L63.731 0V42.1441L64.9208 75.3855L74.6448 78.3104L93.1733 83.993L103.581 90.8196L116.527 121.093L100.788 128.81L87.842 104.077L81.6231 96.7595H70.8346L69.0577 100.914L75.6559 121.393L76.671 141.576L64.5582 145.175Z" fill="#E30712"/>
<path d="M142.301 83.9798L124.394 64.894L119.095 51.6229L112.517 53.9862L109.593 69.4362V90.7062L118.364 113.43L121.835 119.974L128.234 122.701L133.35 111.248L131.888 89.2514L139.197 93.9779L142.301 83.9798ZM124.211 111.432L116.902 87.6168V78.5265L120.739 79.6173L121.653 81.4355L125.307 93.2518L126.403 104.524L124.211 111.432Z" fill="#E30712"/>
</svg>
