<svg width="115" height="115" viewBox="0 0 115 115" fill="none" xmlns="http://www.w3.org/2000/svg">
<path d="M32.385 46.1073L35.3629 35.7452L32.8121 30.9763L20.0788 33.1784L14.5182 46.5403L12.4522 82.8028L14.6934 94.198L19.5776 96.615L22.9641 89.8415L24.133 83.0727L34.3457 88.4941L28.1613 100.863L23.5172 107.197L14.281 109.423L5.9244 108.042L0 102.906L1.51556 85.1044L0.39931 81.4295L5.67121 61.9976L6.24707 49.4248L9.10896 39.2695L21.6444 23.799L36.4946 19.5764L47.7636 35.4395L45.3396 42.8728L38.1048 47.7419L32.385 46.1073Z" fill="#E30712"/>
<path d="M32.3975 110.549L44.5323 64.0002L63.4094 22.37L76.2347 0L84.9045 4.02231L69.4851 34.8587L58.1941 59.6132L64.2399 65.2747L75.7208 76.1434L80.839 84.9074L79.236 111.747L64.8963 111.694L64.4737 88.9059L62.6004 81.2996L54.7064 77.3926L51.8864 79.7897L49.2204 97.1627L42.5795 112.298L32.3975 110.549Z" fill="#E30712"/>
<path d="M114.415 102.833L108.612 87.8251L110.766 72.4194L97.8458 67.9502L88.0889 77.4059L84.5013 86.2097L84.4419 103.624L84.5878 109.671L86.4433 114.78L96.3309 110.637L103.309 94.0117L108.483 109.024L114.415 102.833ZM89.5798 107.461L92.9444 87.3887L96.2702 80.7373L98.6789 82.9255L99.9912 86.2323L97.0333 94.5561L93.7121 103.2L89.5798 107.461Z" fill="#E30712"/>
</svg>
