<svg preserveAspectRatio="none" width="100%" height="100%" overflow="visible" style="display: block;" viewBox="0 0 250.998 269" fill="none" xmlns="http://www.w3.org/2000/svg">
<g id="Group 22">
<path id="Path 4" d="M29.2479 74.5824L26.8346 61.6157L21.4287 57.7738L8.68458 67.0908L9.91229 84.7443L27.5078 125.591L36.2048 136.859H42.8791V127.603L40.4517 119.553L54.61 119.956V136.859L52.9917 146.316L44.092 153.761L34.1801 156.786L24.8765 154.371L16.7845 134.042L13.5487 130.621L8.68328 106.474L2.42759 92.3877L0.000158177 79.7108L5.25888 55.9662L19.2146 43.2892L40.2498 54.5578L41.6654 64.0154L36.4067 73.2722L29.2479 74.5824Z" fill="var(--fill-0, #E30712)"/>
<path id="Path 5" d="M64.5582 145.175L52.3534 87.5969L50.2306 31.7547L52.0301 0.293745L63.731 0V42.1441L64.9208 75.3855L74.6448 78.3104L93.1733 83.993L103.581 90.8196L116.527 121.093L100.788 128.81L87.842 104.077L81.6231 96.7595H70.8346L69.0577 100.914L75.6559 121.393L76.671 141.576L64.5582 145.175Z" fill="var(--fill-0, #E30712)"/>
<path id="Path 6" d="M142.301 83.9798L124.394 64.894L119.095 51.6229L112.517 53.9862L109.593 69.4362V90.7062L118.364 113.43L121.835 119.974L128.234 122.701L133.35 111.248L131.888 89.2513L139.197 93.9779L142.301 83.9798ZM124.211 111.432L116.902 87.6168V78.5265L120.739 79.6173L121.653 81.4355L125.307 93.2518L126.403 104.524L124.211 111.432Z" fill="var(--fill-0, #E30712)"/>
<path id="Path 7" d="M75.3485 189.61L77.6072 176.614L73.875 171.144L58.6735 175.482L53.6682 192.463L55.9249 236.849L60.1518 250.42L66.4116 252.724L69.642 244.045L70.1753 235.658L83.3131 240.923L77.418 256.777L72.6019 265.088L61.6588 269L51.3115 268.41L43.4275 262.933L42.9276 241.079L41.0855 236.754L44.9418 212.426L43.9868 197.056L46.1322 184.329L59.3454 163.874L76.8555 156.802L92.6513 174.632L90.6805 183.991L82.52 190.857L75.3485 189.61Z" fill="var(--fill-0, #E30712)"/>
<path id="Path 8" d="M83.8478 268.006L92.4823 209.792L109.967 156.686L114.681 148.327L125.757 152.091L119.003 171.091L108.525 202.678L116.626 208.778L132.022 220.505L139.402 230.5L140.986 263.361L123.534 265.165L120.019 237.497L116.739 228.487L106.621 224.762L103.505 228.046L102.552 249.53L96.4659 268.808L83.8478 268.006Z" fill="var(--fill-0, #E30712)"/>
<path id="Path 9" d="M178.103 237.452L167.966 213.368L167.623 199.096L160.63 199.041L152.499 212.525L145.081 232.472L145.381 256.812L146.355 264.149L151.402 268.914L160.195 259.939L166.496 238.804L171.702 245.761L178.103 237.452ZM151.564 256.952L153.015 232.094L156.185 223.569L159.403 225.917L159.627 227.937L158.933 240.282L156.03 251.231L151.564 256.952Z" fill="var(--fill-0, #E30712)"/>
<path id="Path 10" d="M168.968 111.42L171.946 101.058L169.396 96.2887L156.662 98.4908L151.102 111.853L149.036 148.115L151.277 159.51L156.161 161.927L159.548 155.154L160.716 148.385L170.929 153.807L164.745 166.175L160.101 172.51L150.864 174.735L142.508 173.354L136.583 168.218L138.099 150.417L136.983 146.742L142.255 127.31L142.831 114.737L145.692 104.582L158.228 89.1114L173.078 84.8889L184.347 100.752L181.923 108.185L174.688 113.054L168.968 111.42Z" fill="var(--fill-0, #E30712)"/>
<path id="Path 11" d="M168.981 175.862L181.116 129.313L199.993 87.6825L212.818 65.3125L221.488 69.3348L206.069 100.171L194.778 124.926L200.823 130.587L212.304 141.456L217.422 150.22L215.819 177.06L201.48 177.007L201.057 154.218L199.184 146.612L191.29 142.705L188.47 145.102L185.804 162.475L179.163 177.611L168.981 175.862Z" fill="var(--fill-0, #E30712)"/>
<path id="Path 12" d="M250.998 168.145L245.195 153.138L247.349 137.732L234.429 133.263L224.672 142.718L221.085 151.522L221.025 168.937L221.171 174.983L223.027 180.093L232.914 175.949L239.892 159.324L245.066 174.336L250.998 168.145ZM226.163 172.774L229.528 152.701L232.854 146.05L235.262 148.238L236.575 151.545L233.617 159.869L230.296 168.513L226.163 172.774Z" fill="var(--fill-0, #E30712)"/>
</g>
</svg>
