<svg preserveAspectRatio="none" width="100%" height="100%" overflow="visible" style="display: block;" viewBox="0 0 78.9992 105.002" fill="none" xmlns="http://www.w3.org/2000/svg">
<g id="Group 6">
<g id="Group 5">
<path id="Path 48" d="M49.2776 19.517L50.4453 11.1606L53.6688 5.44333L57.129 2.64362L60.3211 1.42991L63.0714 0L68.5152 0.371953L73.8461 2.36737L76.0153 4.75879L78.6906 9.8572L78.9992 14.7736L78.685 20.6943L76.6372 25.1536L72.0932 29.2882L66.6303 30.8371L61.5078 30.267L56.5005 28.5147L50.5758 22.8012L49.2776 19.517Z" fill="var(--fill-0, #FFDF4A)"/>
<path id="Path 49" d="M50.0563 19.3019L51.1654 11.3666L54.2267 5.9376L57.5125 3.279L60.5438 2.12644L63.1558 0.768645L68.325 1.12177L73.3872 3.01667L75.4473 5.28756L77.9884 10.1289L78.2818 14.7965L77.9828 20.4188L76.0397 24.6533L71.724 28.5797L66.5365 30.0505L61.672 29.5093L56.9186 27.8456L51.2925 22.4199L50.0563 19.3019Z" fill="var(--fill-0, #16623A)"/>
<path id="Path 50" d="M65.4099 13.5111L67.7943 7.05598L68.6751 2.27318L65.1909 1.43664L62.1913 2.12232L60.8087 2.826L62.1652 6.72159L64.673 12.7436L65.4099 13.5111Z" fill="var(--fill-0, #FFDF4A)"/>
<path id="Path 51" d="M65.7713 14.0046L68.1441 7.28678L69.1938 2.8774L73.5001 5.05827L75.0954 8.10495L69.2828 12.4062L65.7713 14.0046Z" fill="var(--fill-0, #FFDF4A)"/>
<path id="Path 52" d="M65.1277 14.0718C64.9252 13.966 66.34 15.0772 66.34 15.0772L66.4476 16.4182L66.1259 17.7692L64.9424 17.4852L63.5183 16.8846L63.7425 15.4649L65.1277 14.0718Z" fill="var(--fill-0, #FFDF4A)"/>
<path id="Path 53" d="M66.6094 14.4246L66.7181 15.2825L68.0829 16.1247L71.0469 15.2716L76.9545 14.3679L77.1786 11.3918L76.2381 9.36517L75.3387 8.72044L70.3264 12.3192L66.6094 14.4246Z" fill="var(--fill-0, #FFDF4A)"/>
<path id="Path 54" d="M66.92 16.3739L69.1642 16.3844L73.3152 15.5813L76.9955 15.3009L77.2788 17.7617L76.6739 20.3029L75.558 22.5546L73.5334 23.6205L69.5693 19.9846L66.6755 17.3981L66.92 16.3739Z" fill="var(--fill-0, #FFDF4A)"/>
<path id="Path 55" d="M66.3186 28.338L68.3466 28.8258L71.1713 27.7187L73.2143 25.7878L73.6055 24.1452L69.9232 20.7904L66.7353 18.0192L66.3393 18.0462L65.6808 18.3284L65.8449 24.2135L65.9364 26.9993L66.3186 28.338Z" fill="var(--fill-0, #FFDF4A)"/>
<path id="Path 56" d="M65.6053 28.1665L64.1876 29.0477L61.2149 28.0464L59.3203 26.6578L60.5704 23.6776L62.1674 20.7086L63.9136 17.6476L64.7406 17.8462L65.0698 18.4999L65.1853 20.9863L65.3083 24.2086L65.6053 28.1665Z" fill="var(--fill-0, #FFDF4A)"/>
<path id="Path 57" d="M63.2186 14.9567L63.8793 14.8929L64.744 13.7581L61.7687 6.62479L60.5285 3.99771L59.8159 3.47526L57.5524 5.10294L56.7947 6.54934L55.9056 7.61292L55.5574 8.54214L58.5162 11.337L63.2186 14.9567Z" fill="var(--fill-0, #FFDF4A)"/>
<path id="Path 58" d="M62.4925 15.8691L55.6052 16.3544L52.7622 14.8096L51.7958 14.3289L52.7271 11.3528L54.1586 9.07847L55.1557 9.03041L59.462 12.8423L62.651 15.2048L63.1865 15.493L62.4925 15.8691Z" fill="var(--fill-0, #FFDF4A)"/>
</g>
<path id="Path 59" d="M12.3065 3.34391L9.37903 10.3804L8.28982 14.956L8.95344 19.8559L10.8076 23.3968L13.8599 26.3549L19.9491 30.7196L20.7592 32.172L20.1513 37.1534L19.6897 43.1375L20.5866 46.2547L23.4946 50.6292L24.3941 54.1344L23.0136 63.5739L17.5885 86.3601L15.3068 89.8755L10.7105 89.3523L5.78014 89.4274L1.3172 90.7744L0 93.07L0.934208 95.6164L3.16244 97.9898L7.14405 100.687L12.0506 102.736L18.3378 104.246L23.4105 104.787L29.1391 105.002L32.013 103.854L33.8815 102.077L34.0242 98.2416L30.9282 95.4667L25.1463 92.2391L22.2958 91.2634L21.9136 87.2053L24.2643 74.903L27.6353 62.3621L30.7272 55.8488L32.9913 52.813L38.363 49.2657L41.5143 44.1211L43.9725 37.8427L45.6226 36.9796L51.4303 36.0526L56.5528 34.7672L60.1876 32.4475L62.0475 29.8955L64.2025 22.8669L64.6539 18.1382L64.3176 16.3161L46.0606 10.8675L36.1288 8.48249L27.746 6.46939L18.2697 4.1936L12.3065 3.34391Z" fill="var(--fill-0, #FBF7CB)"/>
<path id="Path 60" d="M11.7844 8.57183L10.1604 13.3917L9.93399 18.1205L12.0195 21.8112L14.571 24.6567L18.5223 27.6256L21.3844 30.0092L22.057 32.1075L21.6717 35.7508L21.3078 39.8837L21.3332 42.3801L21.9113 44.871L23.1351 47.2905L24.7195 48.8292L27.833 50.2584L31.8838 50.8588L34.4076 50.1022L37.6586 47.8478L39.7349 44.5677L41.2161 41.4546L42.799 36.8794L44.3005 35.7535L47.4357 35.0198L51.3878 34.4823L54.159 33.7231L57.289 32.4925L59.9141 30.2738L62.0004 25.1382L63.1861 20.158L42.018 14.4347L34.7936 12.6997L24.0969 10.711L16.7313 8.36691L12.1256 7.2609L11.7844 8.57183Z" fill="var(--fill-0, #E52A20)"/>
</g>
</svg>
