<svg preserveAspectRatio="none" width="100%" height="100%" overflow="visible" style="display: block;" viewBox="0 0 59.8131 67.6068" fill="none" xmlns="http://www.w3.org/2000/svg">
<g id="Group 2">
<path id="Path 16" d="M25.705 32.9316L24.5909 34.7911L23.8323 37.2989L22.708 36.8587L23.9793 32.6587L24.8917 31.1336L27.4547 29.489L29.0745 28.4041L30.9711 27.8138L33.2949 27.0222L34.2995 27.3702L34.5011 27.4385L34.6754 28.5303L32.2492 29.3526L30.2159 29.9872L28.473 31.154L25.705 32.9316Z" fill="var(--fill-0, #F7EEB1)"/>
<path id="Path 17" d="M59.8131 65.5767L58.3266 67.4976L55.9618 67.6068L49.0452 62.1579L45.5664 58.033L40.7924 50.769L35.9842 45.3885L30.9437 40.605L25.7631 38.0495L24.8472 37.6946L25.5922 35.2313L26.5081 33.7095L29.071 32.0616L30.6908 30.9766L32.5875 30.3863L34.8497 29.6187L35.3213 32.5768L37.9321 37.5957L43.7552 44.2216L47.217 47.6233L53.9148 54.703L57.3834 59.4557L59.0442 63.1065L59.8131 65.5767Z" fill="var(--fill-0, #F7EEB1)"/>
<path id="Path 18" d="M24.0886 30.3591L26.8601 28.5815L28.5994 27.4146L30.6328 26.78L33.2949 25.8758L34.3576 26.2409L33.7083 20.0585L30.5678 11.348L24.8336 5.00864L20.6337 2.25184L14.8209 0L9.09691 1.05085L3.72833 4.0772L0 8.67643L0.0547303 18.8678L6.89618 29.7586L14.4894 34.6854L21.6726 36.5243L22.9745 32.2151L24.0886 30.3591ZM19.1506 7.68702L17.7768 8.1135L15.5624 7.95311L10.5698 9.14386L10.2246 8.79588L10.9627 8.2943L15.5522 6.41093L17.5684 6.23696L19.1506 7.68702ZM7.39852 9.8604L7.91111 9.36565L8.9499 9.28376L9.45232 9.7205L9.10717 10.5701L8.7893 11.2456L7.67183 11.3207L7.61035 11.1262L7.39852 9.8604ZM7.48395 11.2627L6.83119 11.6551L6.46902 11.713L6.16483 10.7338L6.27763 10.1777L6.54419 9.83307L7.23791 9.93886L7.48395 11.2627ZM7.95892 9.1746L7.97944 8.24995L8.84061 8.12712L9.43864 8.37619L9.69494 8.95282L9.0627 9.14728L7.95892 9.1746ZM9.61292 9.76144L10.2178 9.49871L10.5287 9.76485L10.5834 10.8362L9.9751 11.7847L9.34294 11.6414L8.92604 11.2047L9.61292 9.76144ZM14.0657 2.38833L16.1331 2.88645L15.1967 3.89978L13.2557 4.80394L9.66415 8.17831L9.19944 8.04183L9.56161 7.2639L12.4595 3.48695L14.0657 2.38833ZM8.26644 3.25492L9.03534 1.81511L11.0379 1.38521L10.785 2.50091L9.63003 3.9271L8.39634 7.82688L7.93155 7.90534L7.82568 7.18544L8.26644 3.25492ZM7.80858 9.21213L7.23791 9.57377L6.52367 9.5499L6.62278 8.90846L6.90978 8.52975L7.6821 8.28747L7.80858 9.21213ZM5.02 3.70873L6.58515 2.49408L6.86198 3.37779L6.48262 4.89265L7.13538 8.14762L6.76286 8.41713L6.34938 7.97019L4.98588 5.05642L5.02 3.70873ZM3.47888 4.94725L4.06664 5.48632L4.36049 6.85791L6.21272 9.03812L6.01107 9.44411L5.48479 9.31446L3.17127 7.77569L2.66209 6.71459L3.47888 4.94725ZM2.19055 8.24653L3.13373 9.29059L5.84363 10.2561L5.87099 10.71L5.34813 10.8566L2.5664 10.6792L1.58568 10.0139L1.40797 8.07256L2.19055 8.24653ZM1.33964 11.7745L2.85348 12.1532L6.11703 11.5015L6.38359 11.8734L5.9359 12.2863L3.01751 13.651L1.67111 13.6135L0.451108 12.0508L1.33964 11.7745ZM2.66209 18.1547L0.611711 17.6395L1.5241 16.65L3.43783 15.7766L6.95083 12.4875L7.41212 12.6274L7.06021 13.3917L4.23751 17.0868L2.66209 18.1547ZM7.98628 19.0111L7.09091 20.9934L5.02684 21.7202L5.36515 20.2087L6.64664 18.2127L8.20153 12.9038L8.68001 12.7639L8.73123 13.7192L7.98628 19.0111ZM9.00463 12.5148L8.12978 12.7878L7.60008 12.6206L6.98837 12.0474L7.65139 11.3992L8.75518 11.3718L9.36005 12.0372L9.00463 12.5148ZM11.2156 21.9931L10.7474 20.4884L10.8465 18.0831L9.50355 12.6172L9.84528 12.2521L10.375 13.0675L12.4048 18.1138L12.6372 20.311L11.2156 21.9931ZM16.3621 18.6972L15.2515 17.6736L14.2023 15.606L10.4775 11.7062L10.6005 11.2252L11.4377 11.6414L15.5522 14.8418L16.7858 16.5682L16.3621 18.6972ZM17.9477 13.2143L16.0204 11.9485L10.8739 10.437L10.7407 9.95931L11.6667 9.90134L16.8029 10.611L18.7234 11.4878L19.4137 13.5418L17.9477 13.2143Z" fill="var(--fill-0, #F7EEB1)"/>
</g>
</svg>
