<svg preserveAspectRatio="none" width="100%" height="100%" overflow="visible" style="display: block;" viewBox="0 0 130 100.001" fill="none" xmlns="http://www.w3.org/2000/svg">
<g id="Group 25">
<path id="Path 13" d="M55.2504 100.001L79.6053 97.0818L89.4592 93.1636L123.512 59.2216L127.365 45.3496L129.325 38.9242L130 17.9485L62.2842 8.94389L38.2289 3.7091L40.7524 25.2468L51.8214 82.2698L55.2504 100.001Z" fill="var(--fill-0, #F18B00)"/>
<path id="Path 14" d="M32.7438 27.1936L4.14959 18.6573L0 6.35841L15.7908 0L32.7438 27.1936Z" fill="var(--fill-0, #F18B00)"/>
<path id="Path 15" d="M3.53858 41.7821L29.2038 29.9484L14.7275 27.0345L5.03297 25.6742L3.53858 41.7821Z" fill="var(--fill-0, #F18B00)"/>
<g id="Group 4">
<path id="Path 22" d="M60.5694 28.8182C60.4232 29.4256 60.4033 30.0568 60.5111 30.6723" stroke="var(--stroke-0, #D6681B)" stroke-miterlimit="10"/>
<path id="Path 23" d="M75.5379 28.6232L77.2665 30.5918" stroke="var(--stroke-0, #D6681B)" stroke-miterlimit="10"/>
<path id="Path 24" d="M59.3153 40.5001L60.1763 43.4612" stroke="var(--stroke-0, #D6681B)" stroke-miterlimit="10"/>
<path id="Path 25" d="M79.2951 50.2119C79.3919 51.0417 79.6961 51.8332 80.1794 52.5125" stroke="var(--stroke-0, #D6681B)" stroke-miterlimit="10"/>
<path id="Path 26" d="M70.2613 58.0376C70.5679 59.0039 70.7052 60.0166 70.6669 61.0302" stroke="var(--stroke-0, #D6681B)" stroke-miterlimit="10"/>
<path id="Path 27" d="M99.5024 31.9871C101.03 32.3378 102.587 32.5392 104.153 32.5884" stroke="var(--stroke-0, #D6681B)" stroke-miterlimit="10"/>
<path id="Path 28" d="M114.452 23.9352L117.604 26.3288" stroke="var(--stroke-0, #D6681B)" stroke-miterlimit="10"/>
<path id="Path 29" d="M84.8335 70.4875L85.1815 74.3017" stroke="var(--stroke-0, #D6681B)" stroke-miterlimit="10"/>
<path id="Path 30" d="M50.675 14.3348L50.8594 15.2836" stroke="var(--stroke-0, #D6681B)" stroke-miterlimit="10"/>
<path id="Path 31" d="M65.241 78.5413L65.3184 80.1806" stroke="var(--stroke-0, #D6681B)" stroke-miterlimit="10"/>
<path id="Path 32" d="M80.1785 87.2586L80.83 86.1479" stroke="var(--stroke-0, #D6681B)" stroke-miterlimit="10"/>
<path id="Path 33" d="M114.967 56.9989C114.821 55.9265 114.947 54.8344 115.333 53.8241" stroke="var(--stroke-0, #D6681B)" stroke-miterlimit="10"/>
</g>
<path id="Path 34" d="M8.6738 8.5831L8.85814 9.53237" stroke="var(--stroke-0, #D6681B)" stroke-miterlimit="10"/>
<path id="Path 35" d="M7.25416 14.8092L7.4386 15.7585" stroke="var(--stroke-0, #D6681B)" stroke-miterlimit="10"/>
<path id="Path 38" d="M17.8855 14.6041C17.8648 14.8348 17.8979 15.0672 17.9821 15.2828" stroke="var(--stroke-0, #D6681B)" stroke-width="0.283" stroke-miterlimit="10"/>
<path id="Path 39" d="M17.5462 18.5308L17.4963 18.7728" stroke="var(--stroke-0, #D6681B)" stroke-width="0.283" stroke-miterlimit="10"/>
<path id="Path 40" d="M22.9407 20.0366C23.0488 20.1459 23.1337 20.2762 23.1901 20.4195" stroke="var(--stroke-0, #D6681B)" stroke-width="0.283" stroke-miterlimit="10"/>
<path id="Path 41" d="M7.57887 29.005C8.02671 29.0527 8.47739 29.0682 8.92742 29.0513" stroke="var(--stroke-0, #D6681B)" stroke-width="0.283" stroke-miterlimit="10"/>
<path id="Path 42" d="M13.2549 29.8904C13.6264 30.0848 14.0173 30.239 14.421 30.3505" stroke="var(--stroke-0, #D6681B)" stroke-width="0.283" stroke-miterlimit="10"/>
<path id="Path 43" d="M7.47296 33.4664L7.57858 33.9977" stroke="var(--stroke-0, #D6681B)" stroke-width="0.283" stroke-miterlimit="10"/>
<path id="Path 44" d="M17.8376 33.0278V33.5614" stroke="var(--stroke-0, #D6681B)" stroke-width="0.283" stroke-miterlimit="10"/>
<path id="Path 45" d="M11.4328 35.2136L10.2343 35.9986" stroke="var(--stroke-0, #D6681B)" stroke-width="0.283" stroke-miterlimit="10"/>
</g>
</svg>
