<svg preserveAspectRatio="none" width="100%" height="100%" overflow="visible" style="display: block;" viewBox="0 0 205.999 127" fill="none" xmlns="http://www.w3.org/2000/svg">
<g id="Group 27">
<path id="Path 46" d="M32.6129 11.9508L24.2234 23.613L22.569 27.6711L20.797 30.508L16.3548 33.9152L14.6522 37.9531L10.9893 40.6716L7.91707 45.1237L4.13578 49.4186L0 54.4152L4.01745 60.6475H6.73515L12.5905 63.8356L16.3058 68.8035L22.4041 71.6683L32.6121 81.6869L39.8295 85.5759L43.9555 91.7342L48.7122 93.4627L49.914 99.3158L53.443 102.474L56.4147 103.775L60.294 109.349L62.7297 110.835L66.4447 113.065L69.4163 114.737L79.8317 110.148L92.8195 108.606L104.15 102.102L110.093 104.518L115.281 101.928L120.688 104.52L126.81 110.092L137.954 114.737L142.598 118.453L152.256 121.612L161.099 122.727L167.487 120.311L172.502 125.185L179.559 127H185.874L202.778 121.24L205.999 0L32.6129 11.9508Z" fill="var(--fill-0, #F7EEB1)"/>
<path id="Path 47" d="M36.6553 11.7907C36.6553 12.3158 35.9336 13.1172 34.6958 14.1157C34.0772 11.6043 33.3291 17.4954 32.4785 16.9251C31.6274 17.2418 30.6737 19.8724 29.6421 20.1155C28.611 19.5761 27.5021 21.0425 26.3417 25.0317C25.1817 29.4234 23.9698 26.9864 22.732 28.3197C22.1133 27.8243 21.4883 26.228 20.8595 28.5374C20.2311 27.9549 19.5994 30.7799 18.9676 32.7887C18.3363 31.9733 17.7045 32.5605 17.0761 33.3184C16.4473 33.9698 15.8222 36.9678 15.2032 37.2582C14.5845 38.531 13.9722 39.1118 13.3696 39.9269C12.8143 40.5911 12.2218 41.2232 11.5948 41.8202C10.4348 42.9455 9.32589 43.917 8.29479 45.462C6.23215 50.9735 4.47885 52.571 3.2411 51.4622C2.00335 52.2332 1.28159 56.2711 1.28159 53.7872C1.28159 55.1762 2.18383 52.6458 3.7326 55.7418C4.50636 58.0905 5.44103 57.6864 6.50468 58.9854C7.56833 62.319 8.76092 60.2113 10.0502 60.7841C10.6947 62.6555 11.3636 63.607 12.0524 62.5025C12.7413 64.2682 13.4503 62.5447 14.1755 63.5593C14.9006 62.4881 15.6422 66.526 16.3953 65.4463C17.1488 67.9569 17.9145 66.2326 18.6878 67.6787C19.4616 71.9085 20.243 69.9559 21.0286 69.3345C21.8146 69.8735 22.6039 71.7995 23.395 71.2457C24.1848 73.1429 24.9742 74.3637 25.7615 73.2511C26.5471 75.1956 27.3289 77.7514 28.1022 75.1901C28.876 75.6889 29.6413 73.9701 30.3948 76.2228C31.1482 75.1867 31.8894 78.6746 32.6146 77.8106C33.3397 83.1335 34.0488 79.5332 34.738 79.7974C35.4268 80.2096 36.0958 82.5722 36.7402 82.0848C37.4533 82.5314 38.0825 83.0995 38.5996 83.7634C39.1912 84.4554 39.7558 85.2007 40.2878 85.7502C41.3515 84.2707 42.2863 86.8024 43.0596 87.1249C44.6067 88.8517 45.5105 85.1694 45.5105 89.08C45.5105 89.7407 45.8787 89.2609 46.5248 90.1013C47.1692 87.105 48.0883 91.4963 49.1946 92.7936C50.2997 91.1154 51.5886 93.7465 52.9696 94.5792C54.3502 95.7498 55.8233 99.6464 57.2965 100.962C58.7696 103.876 60.2427 105.281 61.6237 106.276C63.0047 107.271 64.2932 107.857 65.3982 109.133C67.6075 108.689 69.0807 112.253 69.0807 112.846C69.0807 112.868 70.3776 110.315 72.5396 111.971C73.6201 111.875 74.9174 110.312 76.3761 109.63C77.8353 109.427 79.4568 109.992 81.186 109.784C82.0506 108.121 82.9423 109.011 83.8542 108.051C84.7662 109.533 85.6984 108.831 86.6433 108.404C87.5891 108.469 88.5483 107.87 89.5143 107.266C90.4804 108.976 91.4527 108.92 92.4255 106.941C94.3694 106.542 96.3167 109.953 98.2082 105.585C100.1 103.56 101.937 103.133 103.666 104.097C105.396 101.26 107.016 104.123 108.476 103.587C109.935 102.931 111.232 102.08 112.313 101.91C113.494 101.743 114.653 101.45 115.771 101.035L119.831 102.98C122.328 104.177 125.763 103.748 129.51 107.619C133.257 108.964 137.316 109.625 141.062 113.157C144.809 114.341 148.244 114.025 150.742 117.797C153.24 117.554 154.799 118.718 154.799 119.741C154.799 118.339 156.738 118.148 159.647 120.578L164.615 121.435L170.312 122.418C172.897 119.04 175.482 125.124 177.781 123.707C180.079 123.432 182.091 124.79 183.528 124.698C184.965 125.382 185.826 123.697 185.826 125.095C185.826 126.011 188.566 123.424 191.306 121.158C194.046 116.947 196.786 115.992 196.786 117.22V7.85306L49.8645 11.4661L42.7921 11.6398C41.8147 11.4378 40.9429 10.8476 40.1848 10.6173C39.4271 12.1475 38.7835 9.88129 38.262 11.7514C37.7405 9.06839 37.3412 10.3962 37.0724 12.3699C36.794 13.7708 36.6553 13.493 36.6553 11.7907Z" fill="var(--fill-0, #005A31)"/>
</g>
</svg>
