<svg preserveAspectRatio="none" width="100%" height="100%" overflow="visible" style="display: block;" viewBox="0 0 29.8672 82.759" fill="none" xmlns="http://www.w3.org/2000/svg">
<g id="Group 3">
<path id="Path 19" d="M28.432 12.0815L26.3645 7.50618L22.6636 2.49412L17.2677 0.32074L11.1131 0L5.49839 1.88679L0.0717501 10.5189L0 23.3749L3.76246 31.5976L8.84053 36.9952L12.2544 34.0542L14.1921 33.0818L17.4829 33.0647L19.5812 33.0101L21.6384 33.5663L24.3722 34.2248L25.0693 35.105L27.8408 29.5334L29.8672 20.5021L28.432 12.0815ZM16.8097 0.931483L18.7269 1.63773L17.9169 2.44635L16.1775 3.03318L13.0404 5.66037L12.6064 5.47953L12.9037 4.8176L15.3847 1.73327L16.8097 0.931483ZM10.4945 8.28068L11.4377 8.84707L11.5915 9.73416L11.0345 9.94569L10.1528 9.70688L9.79397 9.28722L9.58556 8.47177L10.4945 8.28068ZM9.32584 7.91221L9.59582 6.92276L9.98878 6.51334L10.3988 6.36661L10.9285 6.82721L10.4262 8.07598L9.66415 8.05549L9.32584 7.91221ZM11.5334 8.76177L10.5526 8.22608L10.6039 8.02821L11.1062 6.84429L11.8034 6.70097L12.726 7.18889L12.914 7.82692L12.169 8.35915L11.5334 8.76177ZM12.8935 7.13429L11.9469 6.5679L12.4595 5.79681L13.2557 6.15508L13.6248 6.68394L13.5325 7.3083L12.8935 7.13429ZM11.6462 1.49783L12.4014 0.382131L14.3766 0.194502L14.1339 1.08842L12.9994 2.16317L11.8034 5.26116L11.3454 5.28844L11.2361 4.68794L11.6462 1.49783ZM11.4069 5.46245L12.1895 5.67057L11.8 6.52013H11.1233L10.5356 6.11755L10.9627 5.62622L11.4069 5.46245ZM8.79614 1.6548L10.4365 0.600497L10.6415 1.37159L10.1528 2.68516L10.5458 5.52047L10.1596 5.75246L9.78371 5.36012L8.65606 2.82506L8.79614 1.6548ZM7.0089 2.12902L7.57272 2.69541L7.81191 4.08407L9.58214 6.34954L9.35996 6.74533L8.84053 6.59181L6.58858 4.95067L6.11694 3.86571L7.0089 2.12902ZM4.96193 5.22022L6.03835 6.34954L9.14129 7.54712L9.16866 8.00434L8.57063 8.11009L5.37542 7.70068L4.25453 6.95004L4.06656 4.97799L4.96193 5.22022ZM1.19948 9.78193L2.50149 9.43391L4.586 9.72049L9.319 8.82316L9.63336 9.18826L8.92596 9.64544L4.55863 11.2558L2.65525 11.3139L1.19948 9.78193ZM4.86966 16.0803L2.73384 15.589L3.83421 14.4938L5.98713 13.4975L10.1494 9.84673L10.6278 9.98322L10.1596 10.8192L6.68769 14.8861L4.86966 16.0803ZM10.9012 16.4931L9.91703 18.472L7.81533 19.1305L8.22548 17.6088L9.60258 15.6333L11.4035 10.3005L11.8888 10.1743L11.8957 11.1467L10.9012 16.4931ZM12.2476 9.85015L11.7931 9.38955L11.6769 8.7993L13.0301 7.94632L13.6795 8.05211L13.799 8.44103L13.2694 9.37593L12.2476 9.85015ZM13.9289 19.1032L13.5393 17.6464L13.7649 15.3399L12.7158 10.0515L13.0746 9.71371L13.5598 10.5121L15.3164 15.415L15.4291 17.5338L13.9289 19.1032ZM19.2736 16.3874L18.2108 15.3228L17.2608 13.2245L13.7307 9.19168L13.8708 8.72083L14.6876 9.16435L18.6414 12.5114L19.793 14.2788L19.2736 16.3874ZM20.8045 10.9283L19.0207 9.60792L14.1681 7.93949L14.0656 7.46182L14.9576 7.43112L19.8409 8.29776L21.635 9.2292L22.192 11.3002L20.8045 10.9283ZM20.8899 5.9879L18.7644 5.71151L13.9221 6.63958L13.6009 6.27449L14.3253 5.81389L18.7986 4.17279L20.7464 4.10794L22.2262 5.63305L20.8899 5.9879Z" fill="var(--fill-0, #F7EEB1)"/>
<path id="Path 20" d="M26.2996 69.5993L26.6755 75.4678L26.1184 79.4358L25.4452 81.9333L23.1591 82.759L21.1019 81.5887L18.1869 73.2842L17.4658 67.9377L17.336 59.251L16.1639 52.1372L14.4757 45.4022L11.4753 40.4719L10.8943 39.6804L12.8423 38.0017L14.4347 37.2034L17.4829 37.1863L19.4308 37.1385L21.3479 37.6537L23.6717 38.2167L22.4825 40.9667L21.9903 46.6031L23.3538 55.3103L24.4474 60.0358L26.2996 69.5993Z" fill="var(--fill-0, #F7EEB1)"/>
<path id="Path 21" d="M12.234 37.0908L10.2485 38.8036L9.53425 37.8311L12.8627 34.9652L14.4518 34.1668L17.5 34.1497L19.4513 34.102L21.3684 34.6172L23.7503 35.1937L24.4132 36.0263L24.5499 36.19L24.1125 37.2034L21.6179 36.6029L19.5607 36.0467L17.4658 36.1013L14.1716 36.1218L12.234 37.0908Z" fill="var(--fill-0, #F7EEB1)"/>
</g>
</svg>
