<svg preserveAspectRatio="none" width="100%" height="100%" overflow="visible" style="display: block;" viewBox="0 0 74 75" fill="none" xmlns="http://www.w3.org/2000/svg">
<g id="Path 1 3" clip-path="url(#clip0_0_120)">
<path id="Path 1" d="M13.5519 30.4176L15.6152 30.9551L17.9851 30.0127L21.4919 31.9257L22.7543 35.374L20.3789 40.4742L15.4378 47.266L11.9421 52.5144L9.88285 53.8777L6.66537 53.5397L4.44575 52.6815L3.58468 48.618L2.63965 47.712L0.246143 44.9889L-3.03706e-05 39.6459L2.17942 35.2945L4.28617 32.0631L6.15294 30.2095L7.02797 27.8581L9.49931 20.7032L15.6344 12.6446L21.7564 8.08014L29.0775 4.36775L31.4074 1.38113L45.3481 0.00121502L53.7997 3.6155L67.1293 13.8004L71.7882 22.6901L73.7369 28.5291L73.9994 32.4517L72.3725 33.5053L72.3182 40.9749L70.0708 50.1857L66.0425 56.3633C64.4934 57.8099 60.8489 61.0582 59.2278 62.4897L57.4801 64.9895L55.5372 69.5893C55.5372 69.5893 53.1201 73.2958 52.5963 72.8382C52.0724 72.3805 44.3709 75.0004 44.3709 75.0004L41.7167 74.566L37.2657 74.0047L35.4541 68.8559L39.2389 62.8719L44.0863 54.1776L46.5401 51.3158L48.9922 50.7982L53.4695 53.1205L54.8961 56.1578L57.441 59.101L60.7042 55.3581L66.8081 44.1964L68.1265 34.9679L65.3264 31.1542L62.8574 25.2115L59.24 18.8747L51.8379 13.8316L48.6405 11.1678L42.375 10.1462L36.6911 9.85511L31.6965 10.1279L29.2207 8.51974L20.247 14.5334L15.8266 19.5116L11.5206 28.0962L13.5519 30.4176Z" fill="var(--fill-0, #005A31)"/>
</g>
<defs>
<clipPath id="clip0_0_120">
<rect width="74" height="75" fill="white"/>
</clipPath>
</defs>
</svg>
