<svg preserveAspectRatio="none" width="100%" height="100%" overflow="visible" style="display: block;" viewBox="0 0 379 14" fill="none" xmlns="http://www.w3.org/2000/svg">
<g id="Group 29">
<path id="Polygon 1" d="M5.5 3L10.2631 11.25H0.73686L5.5 3Z" fill="var(--fill-0, #E30712)"/>
<path id="Polygon 9" d="M69.5 3L74.2631 11.25H64.7369L69.5 3Z" fill="var(--fill-0, #E30712)"/>
<path id="Polygon 17" d="M133.5 3L138.263 11.25H128.737L133.5 3Z" fill="var(--fill-0, #E30712)"/>
<path id="Polygon 5" d="M37.5 3L42.2631 11.25H32.7369L37.5 3Z" fill="var(--fill-0, #E30712)"/>
<path id="Polygon 10" d="M101.5 3L106.263 11.25H96.7369L101.5 3Z" fill="var(--fill-0, #E30712)"/>
<path id="Polygon 18" d="M165.5 3L170.263 11.25H160.737L165.5 3Z" fill="var(--fill-0, #E30712)"/>
<path id="Polygon 3" d="M21.5 3L26.2631 11.25H16.7369L21.5 3Z" fill="var(--fill-0, #E30712)"/>
<path id="Polygon 11" d="M85.5 3L90.2631 11.25H80.7369L85.5 3Z" fill="var(--fill-0, #E30712)"/>
<path id="Polygon 19" d="M149.5 3L154.263 11.25H144.737L149.5 3Z" fill="var(--fill-0, #E30712)"/>
<path id="Polygon 6" d="M53.5 3L58.2631 11.25H48.7369L53.5 3Z" fill="var(--fill-0, #E30712)"/>
<path id="Polygon 12" d="M117.5 3L122.263 11.25H112.737L117.5 3Z" fill="var(--fill-0, #E30712)"/>
<path id="Polygon 20" d="M181.5 3L186.263 11.25H176.737L181.5 3Z" fill="var(--fill-0, #E30712)"/>
<path id="Polygon 2" d="M13.5 11L8.73686 2.75L18.2631 2.75L13.5 11Z" fill="var(--fill-0, #005A31)"/>
<path id="Polygon 13" d="M77.5 11L72.7369 2.75L82.2631 2.75L77.5 11Z" fill="var(--fill-0, #005A31)"/>
<path id="Polygon 21" d="M141.5 11L136.737 2.75L146.263 2.75L141.5 11Z" fill="var(--fill-0, #005A31)"/>
<path id="Polygon 7" d="M45.5 11L40.7369 2.75L50.2631 2.75L45.5 11Z" fill="var(--fill-0, #005A31)"/>
<path id="Polygon 14" d="M109.5 11L104.737 2.75L114.263 2.75L109.5 11Z" fill="var(--fill-0, #005A31)"/>
<path id="Polygon 22" d="M173.5 11L168.737 2.75L178.263 2.75L173.5 11Z" fill="var(--fill-0, #005A31)"/>
<path id="Polygon 4" d="M29.5 11L24.7369 2.75L34.2631 2.75L29.5 11Z" fill="var(--fill-0, #005A31)"/>
<path id="Polygon 15" d="M93.5 11L88.7369 2.75L98.2631 2.75L93.5 11Z" fill="var(--fill-0, #005A31)"/>
<path id="Polygon 23" d="M157.5 11L152.737 2.75L162.263 2.75L157.5 11Z" fill="var(--fill-0, #005A31)"/>
<path id="Polygon 8" d="M61.5 11L56.7369 2.75L66.2631 2.75L61.5 11Z" fill="var(--fill-0, #005A31)"/>
<path id="Polygon 16" d="M125.5 11L120.737 2.75L130.263 2.75L125.5 11Z" fill="var(--fill-0, #005A31)"/>
<path id="Polygon 24" d="M189.5 11L184.737 2.75L194.263 2.75L189.5 11Z" fill="var(--fill-0, #005A31)"/>
<path id="Polygon 1_2" d="M197.5 3L202.263 11.25H192.737L197.5 3Z" fill="var(--fill-0, #E30712)"/>
<path id="Polygon 9_2" d="M261.5 3L266.263 11.25H256.737L261.5 3Z" fill="var(--fill-0, #E30712)"/>
<path id="Polygon 17_2" d="M325.5 3L330.263 11.25H320.737L325.5 3Z" fill="var(--fill-0, #E30712)"/>
<path id="Polygon 5_2" d="M229.5 3L234.263 11.25H224.737L229.5 3Z" fill="var(--fill-0, #E30712)"/>
<path id="Polygon 10_2" d="M293.5 3L298.263 11.25H288.737L293.5 3Z" fill="var(--fill-0, #E30712)"/>
<path id="Polygon 18_2" d="M357.5 3L362.263 11.25H352.737L357.5 3Z" fill="var(--fill-0, #E30712)"/>
<path id="Polygon 3_2" d="M213.5 3L218.263 11.25H208.737L213.5 3Z" fill="var(--fill-0, #E30712)"/>
<path id="Polygon 11_2" d="M277.5 3L282.263 11.25H272.737L277.5 3Z" fill="var(--fill-0, #E30712)"/>
<path id="Polygon 19_2" d="M341.5 3L346.263 11.25H336.737L341.5 3Z" fill="var(--fill-0, #E30712)"/>
<path id="Polygon 6_2" d="M245.5 3L250.263 11.25H240.737L245.5 3Z" fill="var(--fill-0, #E30712)"/>
<path id="Polygon 12_2" d="M309.5 3L314.263 11.25H304.737L309.5 3Z" fill="var(--fill-0, #E30712)"/>
<path id="Polygon 20_2" d="M373.5 3L378.263 11.25H368.737L373.5 3Z" fill="var(--fill-0, #E30712)"/>
<path id="Polygon 2_2" d="M205.5 11L200.737 2.75L210.263 2.75L205.5 11Z" fill="var(--fill-0, #005A31)"/>
<path id="Polygon 13_2" d="M269.5 11L264.737 2.75L274.263 2.75L269.5 11Z" fill="var(--fill-0, #005A31)"/>
<path id="Polygon 21_2" d="M333.5 11L328.737 2.75L338.263 2.75L333.5 11Z" fill="var(--fill-0, #005A31)"/>
<path id="Polygon 7_2" d="M237.5 11L232.737 2.75L242.263 2.75L237.5 11Z" fill="var(--fill-0, #005A31)"/>
<path id="Polygon 14_2" d="M301.5 11L296.737 2.75L306.263 2.75L301.5 11Z" fill="var(--fill-0, #005A31)"/>
<path id="Polygon 22_2" d="M365.5 11L360.737 2.75L370.263 2.75L365.5 11Z" fill="var(--fill-0, #005A31)"/>
<path id="Polygon 4_2" d="M221.5 11L216.737 2.75L226.263 2.75L221.5 11Z" fill="var(--fill-0, #005A31)"/>
<path id="Polygon 15_2" d="M285.5 11L280.737 2.75L290.263 2.75L285.5 11Z" fill="var(--fill-0, #005A31)"/>
<path id="Polygon 23_2" d="M349.5 11L344.737 2.75L354.263 2.75L349.5 11Z" fill="var(--fill-0, #005A31)"/>
<path id="Polygon 8_2" d="M253.5 11L248.737 2.75L258.263 2.75L253.5 11Z" fill="var(--fill-0, #005A31)"/>
<path id="Polygon 16_2" d="M317.5 11L312.737 2.75L322.263 2.75L317.5 11Z" fill="var(--fill-0, #005A31)"/>
</g>
</svg>
